# xmcd
#
# Track frame offsets:
#	150
#	10042
#	22970
#	36112
#	46967
#	60655
#	74592
#	84007
#	96900
#	111447
#	123085
#	136272
#
# Disc length: 2001 seconds
#
# Revision: 2
# Processed by: cddbd v1.4PL0 Copyright (c) Steve Scherf et al.
# Submitted via: EasyCDDAExtractor 5.0.7
#
DISCID=9307cf0c
DTITLE=Smoky Mountain Hymns - Volume 2
DYEAR=1990
DGENRE=bluegrass
TTITLE0=Send The Light
TTITLE1=Church In The Wildwood
TTITLE2=Just A Closer Walk With Thee
TTITLE3=Jesus Loves Me
TTITLE4=The Old Rugged Cross
TTITLE5=Mansion Over The Hilltop
TTITLE6=Power In The Blood
TTITLE7=When The Roll Is Called Up Yonder
TTITLE8=Count Your Blessings
TTITLE9=Near The Cross
TTITLE10=Love Lifted Me
TTITLE11=Leaning On The Everlasting Arms
EXTD=
EXTT0=
EXTT1=
EXTT2=
EXTT3=
EXTT4=
EXTT5=
EXTT6=
EXTT7=
EXTT8=
EXTT9=
EXTT10=
EXTT11=
PLAYORDER=
